<svg xmlns="http://www.w3.org/2000/svg" xmlns:xlink="http://www.w3.org/1999/xlink" width="300" height="300" viewBox="-1416560.375163683 -1498176.5054998016 640716.9403915808 741411.1147170296" preserveAspectRatio="xMinYMin meet"><g transform="matrix(1,0,0,-1,0,-2254941.8962825737)"><path fill-rule="evenodd" fill="#66cc99" stroke="#555555" stroke-width="4942.740764780197" opacity="0.6" d="M -1111065.9330691125,-805474.75323285 L -1110710.3882897547,-805527.384742712 L -1096162.3250502304,-807662.1208172794 L -1095175.2516182323,-807820.4901184413 L -1012095.108974266,-819663.0801671447 L -1011486.5184421682,-819746.3039203126 L -1011455.3173743605,-819748.7912360249 L -992482.1858716228,-822388.1680112403 L -953767.5739173263,-827244.2937632888 L -931245.8766098764,-830043.5045234711 L -916838.9978803648,-832479.4694391078 L -887697.3628975647,-836064.6317576204 L -832991.7475959742,-842293.973661973 L -832710.3690457146,-842327.0802198958 L -823172.8080416509,-843378.9104230022 L -823006.6247786264,-843400.064144739 L -822580.2612621178,-843445.0902747394 L -821123.8617040273,-843597.4458498555 L -819970.0377647657,-843734.231317711 L -815317.5918172663,-844247.309513369 L -803303.1056875477,-845580.8533259094 L -803632.6642265056,-848851.5677498478 L -803641.9814936635,-848919.6017935178 L -804692.39016026,-859293.0802681039 L -804699.2134079906,-859338.032139949 L -814325.20472287,-955709.6644343963 L -815161.8421373588,-964153.3898349005 L -815166.0908197141,-964156.9503137522 L -815570.6444499698,-968259.3343449085 L -815664.9819123412,-969245.0401095406 L -818549.5121056075,-998322.1548574793 L -818574.167701526,-998572.4067782472 L -819328.0951811078,-1006059.3686589157 L -819326.8057675086,-1006072.2304265252 L -823303.666875006,-1047116.8667132672 L -825592.652651785,-1070850.4205441168 L -829689.2580463708,-1112840.6253058612 L -830296.3461000484,-1119102.4587532927 L -830298.0505984166,-1119120.117378071 L -838218.9169061193,-1201224.9707203596 L -842495.9444661095,-1245954.9349080885 L -842547.4414310276,-1246325.2752158265 L -842573.619224074,-1246735.741597623 L -842569.132647881,-1246769.4142948133 L -844239.0849261213,-1264001.1256868183 L -844967.4060207291,-1271827.4085375303 L -844972.0397269954,-1271875.4702535104 L -845427.116682372,-1276798.4631657263 L -845427.331355899,-1276908.2417379161 L -845712.4604014556,-1279383.9029279342 L -845725.4484446606,-1279494.6571968137 L -848709.872189432,-1311560.8066266424 L -848709.8825412769,-1311560.9168512968 L -849628.8677867654,-1320828.6253389858 L -849665.1967774082,-1321208.9145753847 L -849703.7879111771,-1321612.338273007 L -849754.9310418026,-1322157.6884186738 L -852410.4929137613,-1350257.4660252114 L -855905.3831206918,-1387412.5151072056 L -855957.7021839576,-1387965.5354665206 L -856570.5865115888,-1394121.1427602426 L -856706.5925732263,-1395722.2439818126 L -858163.9956867294,-1411458.0222746932 L -858276.8040268342,-1412492.4323840614 L -858791.8796783006,-1418066.2165028735 L -858977.5603842365,-1419628.5544733203 L -862052.9179736014,-1452330.2507910004 L -862055.8944617688,-1452331.3813319865 L -863764.5957697995,-1470716.834584356 L -899547.2412306946,-1466685.9705474863 L -997588.8252993333,-1455398.153639271 L -1026101.3999564601,-1451889.4205451799 L -1046548.8019799325,-1449310.2452817939 L -1057942.535322961,-1447025.9472375 L -1082268.4354793734,-1434223.9995127567 L -1101506.8023367978,-1424020.4318908127 L -1161518.376008098,-1392146.1252194229 L -1217119.3963991993,-1362518.9289616684 L -1240231.6694157012,-1350317.862212499 L -1258686.6855570464,-1340066.994110453 L -1272813.3444163762,-1332174.3548473048 L -1339694.9440501567,-1294815.690527505 L -1389100.7042482374,-1267136.9677939743 L -1386636.9585224418,-1253737.445939917 L -1386380.5638688493,-1253308.0903902696 L -1385568.7549630466,-1253024.7743487665 L -1383958.0220526338,-1253314.9692655068 L -1380738.385925345,-1250134.9912665489 L -1380166.908254502,-1249572.9909001887 L -1376627.0671940276,-1244046.7322296794 L -1372539.5943500802,-1242750.3803418982 L -1372403.8895378027,-1242818.6233755113 L -1370757.937577691,-1243374.2155519084 L -1370704.875821987,-1243386.9430973777 L -1366851.7053978604,-1244659.3350383253 L -1366848.9949351756,-1244549.3719257056 L -1354324.0913527997,-1236280.94627646 L -1354270.5282901193,-1236266.8703072132 L -1350506.3929186324,-1230514.1550618734 L -1350502.5976981008,-1230489.033404727 L -1349804.806387473,-1227640.186389828 L -1349239.2290058383,-1220325.3034642234 L -1352314.4674715712,-1213963.7841878058 L -1352770.3267340472,-1213500.5462196292 L -1353315.8932525653,-1212945.8975177642 L -1357647.2237256172,-1211559.0892455624 L -1358278.8253972484,-1211590.2630688695 L -1358994.8252475904,-1212270.5393509762 L -1359489.8889119586,-1212410.210300467 L -1361018.0649093245,-1212204.0583732065 L -1362586.498036921,-1211591.7263533778 L -1366985.2636150864,-1208706.709742866 L -1369259.0429211177,-1203401.7336773863 L -1368867.1849400075,-1201867.0290822114 L -1367570.471600558,-1199179.2722277974 L -1366488.1438557734,-1198130.8636895965 L -1365486.4278622393,-1196354.5571441948 L -1364680.199170106,-1193569.983307256 L -1363145.3913046075,-1185613.4496439032 L -1364316.517422722,-1176108.6724790656 L -1365303.6619919578,-1169640.6105539857 L -1359864.859206939,-1168514.3174971293 L -1356062.2802528066,-1167127.7929699116 L -1355287.9143653759,-1164670.6695402178 L -1352038.8945272798,-1160898.970182619 L -1348157.6601968568,-1157431.8964990673 L -1345409.4530214167,-1153743.6721717978 L -1345430.814366741,-1153698.739599818 L -1345634.1140617917,-1152372.3645480932 L -1345481.118893813,-1151182.522765376 L -1343061.7339387392,-1141706.4123831214 L -1342366.4007798072,-1141079.4601070508 L -1341880.1459450582,-1140871.4225539828 L -1339672.301085065,-1140303.9234822518 L -1339277.499028307,-1139130.5657974551 L -1339386.8462315295,-1133652.1085380332 L -1340282.6195117168,-1127892.738601979 L -1339931.6087819894,-1124292.1242630542 L -1337949.818078877,-1115744.2215478292 L -1335512.317115011,-1111177.5778967794 L -1331677.340672627,-1108275.1293452964 L -1328879.922007987,-1105470.0691744983 L -1328322.4912067798,-1103856.2544137433 L -1327658.8665554496,-1099244.3990512295 L -1327326.1455528757,-1098322.9804636266 L -1325901.9080079182,-1096872.2000682093 L -1324990.1305170802,-1096289.4666652419 L -1324024.4406671303,-1096273.0189507368 L -1323070.80970545,-1096613.7077402482 L -1320743.6173513692,-1096056.7392916323 L -1316337.057027986,-1094612.8251035379 L -1315410.6736117904,-1094054.7532713197 L -1308610.9311207924,-1091252.4436454664 L -1306577.5508248382,-1089103.3263798356 L -1300176.5177263774,-1084569.2159190655 L -1297231.696506523,-1084301.7497220794 L -1297038.753034082,-1084117.5314640964 L -1296944.9584569845,-1079308.1760774718 L -1299681.3011448984,-1073655.3081849362 L -1301525.7434125831,-1071983.134602177 L -1306730.2690692001,-1066595.8721448765 L -1312704.025670073,-1059927.5524589114 L -1319479.448733058,-1035982.045732224 L -1319995.9020356738,-1031521.3392219312 L -1326563.130829849,-1021964.7315204152 L -1332015.3884672315,-1009379.4626844391 L -1332119.2814177219,-1008793.4532975324 L -1332014.1806480524,-1007220.5024801664 L -1331174.0252292247,-1005319.38180825 L -1329639.303692271,-996687.5241295135 L -1329555.465276261,-996054.6375006037 L -1329721.6674888502,-994874.6588130437 L -1329533.9876320541,-993377.5381448829 L -1329487.5773714776,-991961.3188089574 L -1327122.4475553809,-984882.0730567853 L -1324617.9174126184,-982345.4037344983 L -1323221.3259497231,-982144.5002051654 L -1322638.7170130035,-981823.2406051487 L -1321948.2623659861,-980818.4858326184 L -1321242.1473913845,-978196.7874201959 L -1320858.5887143884,-975958.8059725463 L -1320785.2560638674,-959973.5337123935 L -1321040.8307054064,-956728.7424613149 L -1322103.8876170765,-950229.5874169127 L -1323979.8391177184,-947679.709129136 L -1324618.9707011003,-945864.9586920389 L -1325205.5687604428,-940624.0874512818 L -1324960.9252341376,-939614.8469209437 L -1324602.9768529395,-938379.4589785329 L -1324084.4641319038,-937333.195675316 L -1321156.4789720946,-928946.7713996889 L -1320922.630125896,-927712.1864081647 L -1321155.9799911028,-926824.136386242 L -1322466.0197938334,-924029.4628630248 L -1323412.625435903,-922685.0470013339 L -1323519.485189183,-917135.134347005 L -1322209.5010039923,-904773.9330472727 L -1321369.4411951848,-900743.6271744241 L -1321190.4399314146,-900425.189944686 L -1320888.1673423392,-897459.6384139294 L -1321942.4982324787,-889766.4834728898 L -1322345.968629072,-885337.9184472318 L -1321572.5016234703,-873787.5259378479 L -1320415.8713559099,-872690.9357942666 L -1319546.4631581558,-872204.4827012147 L -1309640.6980193155,-869673.593570845 L -1304201.0411622846,-869581.1248827598 L -1299012.2820927494,-870535.9551014599 L -1287523.3799706912,-873616.6746779098 L -1286280.3659662553,-874728.819672118 L -1283490.1211541404,-878397.1035623709 L -1282279.0424403546,-881057.0180555625 L -1282083.3772309457,-881908.2452292884 L -1281936.798926529,-883072.0772493622 L -1281231.3674154987,-884924.6848924219 L -1279049.7288342898,-888141.7963823465 L -1278218.3876312044,-888932.8076848538 L -1277087.4080952788,-889762.4630625576 L -1276603.7054550855,-889876.1262318839 L -1274843.8473548817,-890028.3363620618 L -1269423.534981693,-890023.9382831143 L -1268889.97581291,-889725.922249604 L -1267714.734560487,-888349.7372514736 L -1265997.811322564,-884552.9941308344 L -1265080.7476424004,-881922.940429798 L -1258579.0425089658,-873470.7067321086 L -1258297.3762050292,-873245.3498703344 L -1257026.4277311026,-872929.805106611 L -1256090.2324380043,-866712.4492065987 L -1255551.7700293143,-862403.3347700963 L -1253965.6532171546,-853390.2819210015 L -1252242.836384638,-842222.2048631313 L -1249479.999780741,-822063.1873229427 L -1247017.6203162973,-806240.2130418122 L -1246281.4006034122,-801515.8526525546 L -1243582.7297324282,-784225.0616982175 L -1236179.334069617,-785521.6311151721 L -1236180.1713681757,-785527.0194718275 L -1148620.0995506188,-799747.6358854847 L -1142732.3390879778,-800655.4617757623 L -1117314.6164970603,-804518.1962660165 L -1112854.9434824574,-805201.9707938713 L -1111635.7559692927,-805381.8137974993 L -1111221.8436983326,-805451.7372363618 L -1111065.9330691125,-805474.75323285 z" /></g></svg>